<svg width="16" height="16" viewBox="0 0 16 16" fill="none" xmlns="http://www.w3.org/2000/svg">
<path d="M10.7651 14V15.25C10.7651 15.6642 10.4053 16 9.9615 16H0.854353C0.410547 16 0.0507812 15.6642 0.0507812 15.25V3.75C0.0507812 3.33578 0.410547 3 0.854353 3H3.26507V12.25C3.26507 13.215 4.10617 14 5.14007 14H10.7651ZM10.7651 3.25V0H5.14007C4.69626 0 4.3365 0.335781 4.3365 0.75V12.25C4.3365 12.6642 4.69626 13 5.14007 13H14.2472C14.691 13 15.0508 12.6642 15.0508 12.25V4H11.5686C11.1267 4 10.7651 3.6625 10.7651 3.25ZM14.8154 2.28034L12.6076 0.219656C12.4569 0.0790133 12.2525 1.03999e-06 12.0394 0L11.8365 0V3H15.0508V2.81066C15.0508 2.61175 14.9661 2.42099 14.8154 2.28034Z" fill="#E1E1E1"/>
</svg>
