<svg width="26" height="25" viewBox="0 0 26 25" fill="none" xmlns="http://www.w3.org/2000/svg">
<path d="M25.3123 15.504L23.0693 14.2641C23.2957 13.0948 23.2957 11.8952 23.0693 10.7258L25.3123 9.4859C25.5703 9.34477 25.6861 9.05243 25.6019 8.78026C25.0174 6.98591 24.0223 5.36293 22.7218 4.01213C22.5217 3.80548 22.1953 3.75507 21.9426 3.8962L19.6996 5.13612C18.7572 4.35991 17.6725 3.76011 16.4984 3.36697V0.892181C16.4984 0.609924 16.2931 0.362949 16.0035 0.302465C14.0712 -0.110839 12.0915 -0.0906782 10.254 0.302465C9.96438 0.362949 9.75904 0.609924 9.75904 0.892181V3.37201C8.59018 3.77019 7.50556 4.36999 6.55783 5.14116L4.32015 3.90124C4.06215 3.76011 3.74098 3.80548 3.54091 4.01717C2.24042 5.36293 1.2453 6.98591 0.660872 8.7853C0.571365 9.05747 0.692463 9.34981 0.950455 9.49094L3.19341 10.7309C2.96701 11.9002 2.96701 13.0998 3.19341 14.2691L0.950455 15.5091C0.692463 15.6502 0.57663 15.9425 0.660872 16.2147C1.2453 18.0091 2.24042 19.632 3.54091 20.9828C3.74098 21.1895 4.06742 21.2399 4.32015 21.0988L6.5631 19.8588C7.50556 20.635 8.59018 21.2348 9.76431 21.628V24.1078C9.76431 24.3901 9.96965 24.6371 10.2592 24.6975C12.1915 25.1108 14.1712 25.0907 16.0088 24.6975C16.2983 24.6371 16.5037 24.3901 16.5037 24.1078V21.628C17.6726 21.2298 18.7572 20.63 19.7049 19.8588L21.9478 21.0988C22.2058 21.2399 22.527 21.1945 22.7271 20.9828C24.0276 19.6371 25.0227 18.0141 25.6071 16.2147C25.6861 15.9375 25.5703 15.6451 25.3123 15.504ZM13.1287 16.5272C10.8068 16.5272 8.91662 14.7177 8.91662 12.495C8.91662 10.2722 10.8068 8.46272 13.1287 8.46272C15.4507 8.46272 17.3408 10.2722 17.3408 12.495C17.3408 14.7177 15.4507 16.5272 13.1287 16.5272Z" fill="#A9A9A9"/>
</svg>
