<svg width="63" height="63" viewBox="0 0 63 63" fill="none" xmlns="http://www.w3.org/2000/svg">
<g clip-path="url(#clip0_386_4)">
<path d="M18.8999 44.1002H37.7999C43.0171 44.1002 47.2499 39.8674 47.2499 34.6502H50.3999C57.3496 34.6502 62.9999 28.9999 62.9999 22.0502C62.9999 15.1005 57.3496 9.4502 50.3999 9.4502H11.8124C10.5032 9.4502 9.44989 10.5035 9.44989 11.8127V34.6502C9.44989 39.8674 13.6827 44.1002 18.8999 44.1002ZM50.3999 15.7502C53.8747 15.7502 56.6999 18.5754 56.6999 22.0502C56.6999 25.525 53.8747 28.3502 50.3999 28.3502H47.2499V15.7502H50.3999ZM55.0954 53.5502H4.75442C0.0687953 53.5502 -1.25027 47.2502 1.21067 47.2502H58.6293C61.0902 47.2502 59.7908 53.5502 55.0954 53.5502Z" fill="#D7D7D7"/>
</g>
<defs>
<clipPath id="clip0_386_4">
<rect width="63" height="63" fill="white"/>
</clipPath>
</defs>
</svg>
